<?xml version="1.0" encoding="UTF-8" standalone="no"?>
<!-- Created with Inkscape (http://www.inkscape.org/) -->

<svg
   width="25.4mm"
   height="128.5mm"
   viewBox="0 0 25.399999 128.5"
   version="1.1"
   id="svg1"
   inkscape:version="1.4 (e7c3feb100, 2024-10-09)"
   sodipodi:docname="EnvoModule.svg"
   xmlns:inkscape="http://www.inkscape.org/namespaces/inkscape"
   xmlns:sodipodi="http://sodipodi.sourceforge.net/DTD/sodipodi-0.dtd"
   xmlns="http://www.w3.org/2000/svg"
   xmlns:svg="http://www.w3.org/2000/svg">
  <sodipodi:namedview
     id="namedview1"
     pagecolor="#ffffff"
     bordercolor="#000000"
     borderopacity="0.25"
     inkscape:showpageshadow="2"
     inkscape:pageopacity="0.0"
     inkscape:pagecheckerboard="false"
     inkscape:deskcolor="#d1d1d1"
     inkscape:document-units="mm"
     inkscape:zoom="1.4142136"
     inkscape:cx="-77.781744"
     inkscape:cy="186.32263"
     inkscape:window-width="1416"
     inkscape:window-height="1303"
     inkscape:window-x="0"
     inkscape:window-y="0"
     inkscape:window-maximized="0"
     inkscape:current-layer="svg1"
     showgrid="true">
    <inkscape:grid
       id="grid1"
       units="mm"
       originx="0"
       originy="0"
       spacingx="0.26458332"
       spacingy="0.26458334"
       empcolor="#0099e5"
       empopacity="0.30196078"
       color="#0099e5"
       opacity="0.14901961"
       empspacing="5"
       enabled="true"
       visible="true" />
    <inkscape:grid
       id="grid2"
       units="mm"
       originx="0"
       originy="0"
       spacingx="0.99999996"
       spacingy="1"
       empcolor="#0099e5"
       empopacity="0.30196078"
       color="#0099e5"
       opacity="0.14901961"
       empspacing="5"
       enabled="true"
       visible="true" />
  </sodipodi:namedview>
  <defs
     id="defs1" />
  <g
     inkscape:label="Layer 1"
     inkscape:groupmode="layer"
     id="layer1"
     style="display:inline">
    <rect
       style="fill:#ff00ff;stroke-width:0.264583"
       id="rect19"
       width="25.4"
       height="128.5"
       x="6.0125254e-05"
       y="0.00093796232" />
  </g>
  <rect
     style="fill:#ffff00;fill-rule:evenodd;stroke-width:0.476108"
     id="rect1-8"
     width="21.845314"
     height="16.602482"
     x="2.1812932"
     y="103.11723" />
  <path
     d="m 4.6573657,11.399782 h 3.4567409 v 0.622506 H 5.3970497 v 1.618516 h 2.6035411 v 0.622507 H 5.3970497 v 1.981034 h 2.7829694 v 0.622507 H 4.6573657 Z m 4.7383714,0 h 0.9960099 l 2.424113,4.57359 v -4.57359 h 0.717713 v 5.46707 h -0.99601 L 10.11345,12.293261 v 4.573591 H 9.3957371 Z m 7.0196739,5.46707 -2.087227,-5.46707 h 0.77264 l 1.732032,4.602885 1.735694,-4.602885 h 0.768979 l -2.083566,5.46707 z m 5.807618,-4.965403 q -0.805597,0 -1.281631,0.600535 -0.472372,0.600536 -0.472372,1.636825 0,1.032629 0.472372,1.633164 0.476034,0.600536 1.281631,0.600536 0.805596,0 1.274307,-0.600536 0.472372,-0.600535 0.472372,-1.633164 0,-1.036289 -0.472372,-1.636825 -0.468711,-0.600535 -1.274307,-0.600535 z m 0,-0.600536 q 1.149805,0 1.838224,0.77264 0.688419,0.768979 0.688419,2.065256 0,1.292616 -0.688419,2.065257 -0.688419,0.768978 -1.838224,0.768978 -1.153468,0 -1.845548,-0.768978 -0.688419,-0.768979 -0.688419,-2.065257 0,-1.296277 0.688419,-2.065256 0.69208,-0.77264 1.845548,-0.77264 z"
     id="text2"
     style="font-size:7.49937px;fill:#ffff00;stroke-width:0.624948"
     transform="scale(0.87031521,1.149009)"
     aria-label="ENVO" />
</svg>
