<?xml version="1.0" encoding="UTF-8" standalone="no"?>
<!-- Created with Inkscape (http://www.inkscape.org/) -->

<svg
   width="50.799999mm"
   height="128.5mm"
   viewBox="0 0 50.799998 128.5"
   version="1.1"
   id="svg1"
   inkscape:version="1.4.4 (dcaf3e7, 2026-05-05)"
   sodipodi:docname="RereloModule.svg"
   xmlns:inkscape="http://www.inkscape.org/namespaces/inkscape"
   xmlns:sodipodi="http://sodipodi.sourceforge.net/DTD/sodipodi-0.dtd"
   xmlns="http://www.w3.org/2000/svg"
   xmlns:svg="http://www.w3.org/2000/svg">
  <sodipodi:namedview
     id="namedview1"
     pagecolor="#ffffff"
     bordercolor="#000000"
     borderopacity="0.25"
     inkscape:showpageshadow="2"
     inkscape:pageopacity="0.0"
     inkscape:pagecheckerboard="false"
     inkscape:deskcolor="#d1d1d1"
     inkscape:document-units="mm"
     inkscape:zoom="1.7378303"
     inkscape:cx="98.686278"
     inkscape:cy="129.47179"
     inkscape:window-width="1239"
     inkscape:window-height="921"
     inkscape:window-x="187"
     inkscape:window-y="33"
     inkscape:window-maximized="0"
     inkscape:current-layer="layer1"
     showgrid="true">
    <inkscape:grid
       id="grid3"
       units="px"
       originx="0"
       originy="0"
       spacingx="0.26458332"
       spacingy="0.26458334"
       empcolor="#0099e5"
       empopacity="0.30196078"
       color="#0099e5"
       opacity="0.14901961"
       empspacing="5"
       enabled="true"
       visible="true"
       dotted="false"
       snapvisiblegridlinesonly="true" />
  </sodipodi:namedview>
  <defs
     id="defs1" />
  <g
     inkscape:label="Layer 1"
     inkscape:groupmode="layer"
     id="layer1"
     style="display:inline">
    <rect
       style="fill:#ff00ff;stroke-width:0.374177"
       id="rect19"
       width="50.799999"
       height="128.5"
       x="-2.9538411e-16"
       y="-8.9351269e-15" />
    <rect
       style="fill:#ffff00;fill-rule:evenodd;stroke-width:0.529166"
       id="rect3"
       width="50.799999"
       height="5.291667"
       x="-2.9538411e-16"
       y="-8.9351269e-15" />
    <rect
       style="fill:#ffff00;fill-rule:evenodd;stroke-width:0.520803"
       id="rect4"
       width="50.799999"
       height="5.4687376"
       x="0"
       y="123.03126"
       ry="0" />
    <path
       style="font-size:24.2883px;font-family:Talagante;-inkscape-font-specification:'Talagante, @wght=400';font-variation-settings:'wght' 400;fill:#ffff00;stroke-width:0.701724"
       d="m 5.5836254,12.052984 v 16.370314 h 1.457298 v -4.906237 h 0.7043607 c 0.3886128,0 0.6072075,0.170018 0.6800724,0.534343 l 0.3157479,1.821622 c 0.2671713,1.72447 1.1415501,2.550272 2.6960016,2.550272 h 0.582919 c 0.388613,0 0.631496,-0.242883 0.631496,-0.631496 v -2.866019 c 0,-0.388613 -0.242883,-0.631496 -0.631496,-0.631496 h -1.335857 c -0.388612,0 -0.607207,-0.170018 -0.680072,-0.534343 L 9.9069428,23.24989 c 1.6758922,-0.218595 2.6960012,-1.43301 2.7931542,-3.327497 0.04858,-0.947244 0.07287,-1.870199 0.07287,-2.817443 0,-0.947243 -0.02429,-1.894487 -0.07287,-2.817442 -0.09715,-1.773046 -1.165838,-2.86602 -2.8660191,-2.86602 H 6.2151212 c -0.3886128,0 -0.6314958,0.218595 -0.6314958,0.631496 z m 4.2261642,7.383643 H 9.1297172 7.0409234 v -3.764686 h 2.7688662 c 0.8743784,0 1.3601444,0.437189 1.3601444,1.360144 v 0.971532 c 0,0.971532 -0.485766,1.43301 -1.3601444,1.43301 z m 5.1734094,8.986671 h 5.270561 c 0.388613,0 0.631496,-0.218595 0.631496,-0.631496 v -2.987461 c 0,-0.388613 -0.242883,-0.631496 -0.631496,-0.631496 h -4.493335 v -1.384433 h 3.376073 c 0.388613,0 0.631496,-0.242883 0.631496,-0.631495 v -2.963173 c 0,-0.388613 -0.242883,-0.631496 -0.631496,-0.631496 h -3.376073 v -2.890307 h 4.396182 c 0.388613,0 0.631496,-0.218595 0.631496,-0.631496 v -2.987461 c 0,-0.388613 -0.218595,-0.631496 -0.631496,-0.631496 h -5.173408 c -0.388613,0 -0.631496,0.218595 -0.631496,0.631496 v 15.738818 c 0,0.388613 0.242883,0.631496 0.631496,0.631496 z m 7.480786,-16.370314 v 16.370314 h 1.457298 v -4.906237 h 0.704361 c 0.388613,0 0.607207,0.170018 0.680072,0.534343 l 0.315748,1.821622 c 0.267171,1.72447 1.14155,2.550272 2.696001,2.550272 h 0.582919 c 0.388613,0 0.631496,-0.242883 0.631496,-0.631496 v -2.866019 c 0,-0.388613 -0.242883,-0.631496 -0.631496,-0.631496 h -1.335856 c -0.388613,0 -0.607208,-0.170018 -0.680072,-0.534343 l -0.09715,-0.510054 c 1.675893,-0.218595 2.696002,-1.43301 2.793155,-3.327497 0.04858,-0.947244 0.07287,-1.870199 0.07287,-2.817443 0,-0.947243 -0.02429,-1.894487 -0.07287,-2.817442 -0.09715,-1.773046 -1.165839,-2.86602 -2.866019,-2.86602 h -3.618957 c -0.388613,0 -0.631496,0.218595 -0.631496,0.631496 z m 4.226164,7.383643 h -0.680072 -2.088794 v -3.764686 h 2.768866 c 0.874379,0 1.360145,0.437189 1.360145,1.360144 v 0.971532 c 0,0.971532 -0.485766,1.43301 -1.360145,1.43301 z m 5.17341,8.986671 h 5.270561 c 0.388613,0 0.631496,-0.218595 0.631496,-0.631496 v -2.987461 c 0,-0.388613 -0.242883,-0.631496 -0.631496,-0.631496 h -4.493336 v -1.384433 h 3.376074 c 0.388613,0 0.631496,-0.242883 0.631496,-0.631495 v -2.963173 c 0,-0.388613 -0.242883,-0.631496 -0.631496,-0.631496 h -3.376074 v -2.890307 h 4.396183 c 0.388612,0 0.631495,-0.218595 0.631495,-0.631496 v -2.987461 c 0,-0.388613 -0.218594,-0.631496 -0.631495,-0.631496 h -5.173408 c -0.388613,0 -0.631496,0.218595 -0.631496,0.631496 v 15.738818 c 0,0.388613 0.242883,0.631496 0.631496,0.631496 z m 8.112282,0 h 4.371893 c 0.388613,0 0.631496,-0.242883 0.631496,-0.631496 v -3.011749 c 0,-0.388613 -0.242883,-0.631496 -0.631496,-0.631496 H 40.801643 V 11.421488 h -1.457298 v 16.370314 c 0,0.388613 0.218594,0.631496 0.631496,0.631496 z m 9.302417,0.14573 h 1.384433 c 1.675893,0 2.768866,-1.068686 2.841731,-2.841731 0.07287,-1.700181 0.09715,-3.837552 0.09715,-5.804904 0,-1.991641 -0.02429,-4.104723 -0.09715,-5.804904 -0.07287,-1.773045 -1.165838,-2.841731 -2.841731,-2.841731 h -1.384433 c -1.675893,0 -2.768866,1.068686 -2.841731,2.841731 -0.04858,1.700181 -0.09715,3.813263 -0.09715,5.804904 0,1.967352 0.04858,4.104723 0.09715,5.804904 0.07287,1.773045 1.165838,2.841731 2.841731,2.841731 z m 0.704361,-4.129011 h -0.02429 c -1.505874,0 -2.161658,-0.631496 -2.210235,-1.991641 -0.02429,-0.801514 -0.02429,-1.724469 -0.02429,-2.525983 0,-0.801514 0,-1.748758 0.02429,-2.525983 0.04858,-1.360145 0.728649,-1.991641 2.210235,-1.991641 h 0.02429 c 1.481586,0 2.161658,0.631496 2.210235,1.991641 0.02429,0.777225 0.04858,1.724469 0.04858,2.525983 0,0.801514 -0.02429,1.724469 -0.04858,2.525983 -0.04858,1.360145 -0.728649,1.991641 -2.210235,1.991641 z"
       id="text1"
       transform="scale(0.86381978,1.1576489)"
       aria-label="rerelo" />
  </g>
</svg>
