<?xml version="1.0" encoding="UTF-8"?><svg id="svg1" xmlns="http://www.w3.org/2000/svg" width="40.64mm" height="128.399mm" viewBox="0 0 115.2 363.964"><rect width="115.2" height="363.964" fill="#ff0"/><path d="M57.6,162.854c-10.4,0-17.7,7.9-17.7,18.4s7.1,17.6,17.7,17.6c10.9,0,18.8-7.1,18.8-17.6s-8.4-18.4-18.8-18.4ZM57.6,192.754c-7.3,0-11.7-4.2-11.7-11.6s4.7-12.4,11.7-12.4c7.3,0,12.8,5.6,12.8,12.4s-5.5,11.6-12.8,11.6Z" fill="#f0f"/><path d="M87.2,175.654c-.4-2-.9-4-1.6-5.7s-1.6-3.1-2.5-4.4l-.5-.7c-1-1.5-2.2-2.7-3.4-3.9l-.8-.8c-1.2-1.1-2.4-2.3-4-3.4-1.5-1-3.1-2-5-2.8-1.7-.7-3.6-1.3-5.6-1.7-1.9-.4-3.7-.4-5.5-.4h-.3c-1.7-.1-3.3.2-4.7.5-.3.1-.6.2-.9.2-1.6.3-3.6.7-5.5,1.4-1.5.6-2.7,1.4-3.8,2.2-.3.2-.7.5-1,.7-.4.3-.9.5-1.4.8-1.1.6-2.4,1.3-3.5,2.4-1.3,1.3-2.5,2.8-3.6,4.5-.9,1.5-1.6,3.1-2.2,4.7l-.2.4c-.7,1.7-1,3.4-1.4,5v.4c-.1.5-.2,1-.4,1.6-.3,1.2-.7,2.6-.7,4.1,0,1.8.3,3.4.7,4.9v.8c.2,1.5.9,2.7,1.4,3.8.3.5.5,1,.7,1.4.1.4.3,1,.4,1.6.3,1.2.6,2.6,1.4,3.9.8,1.3,1.9,2.4,2.9,3.3.3.3.6.6.9.9,1.2,1.3,2.6,2.4,4.3,3.5l.7.4c1.2.9,2.6,1.8,4.2,2.4,1.3.6,2.7.7,3.9.8.6.1,1.1.2,1.6.2.5.1,1,.2,1.6.4,1.1.4,2.4.8,3.9.8h.4c1.9,0,3.9-.2,5.5-.5,1.6-.2,3.1-.8,4.4-1.3.3-.1.7-.3,1-.4,1.8-.6,3.4-1.4,5.1-2.4,1.6-1,2.8-2.1,4-3.2l.4-.4c1.4-1.3,2.6-2.7,3.7-4.2.2-.3.5-.6.7-.9.8-1.1,1.7-2.4,2.4-3.9.8-1.8,1.2-3.6,1.6-5.5.4-1.5.8-3.5.8-5.6v-1.6c.1-1.3.2-2.8-.1-4.3ZM80.9,179.454v1.9c0,1.4-.2,2.8-.6,4.5-.3,1.6-.6,3.1-1.2,4.4-.4.9-1,1.8-1.7,2.7-.3.4-.5.7-.8,1.1-.9,1.2-1.8,2.3-2.9,3.3l-.4.4c-1,1-1.9,1.9-3,2.5-1.3.8-2.7,1.5-4.1,2-.3.1-.7.3-1.1.4-1.1.4-2.2.8-3.3,1-1.5.3-3.1.5-4.7.5-.7,0-1.5-.2-2.3-.5-.7-.2-1.4-.5-2.2-.6-.8-.2-1.5-.3-2.2-.3-.9-.1-1.7-.2-2.3-.4-1-.4-2-1.1-3.1-1.8l-.7-.5c-1.3-.8-2.4-1.7-3.4-2.7-.4-.3-.7-.7-1.1-1-.8-.7-1.5-1.5-2-2.2-.3-.5-.5-1.3-.7-2.1-.1-.7-.3-1.5-.6-2.3-.3-.7-.6-1.4-.9-2-.4-.8-.8-1.5-1-2.2v-.8c-.2-1.3-.4-2.6-.4-3.8,0-.7.2-1.6.5-2.5.2-.7.4-1.3.6-2.1v-.4c.3-1.4.5-2.8,1-4l.2-.5c.5-1.4,1-2.7,1.7-3.7.9-1.3,1.9-2.6,2.9-3.6.5-.5,1.3-.9,2.1-1.3.6-.4,1.3-.7,1.9-1.1.4-.3.8-.5,1.2-.8.9-.7,1.7-1.3,2.6-1.6,1.4-.6,3-.9,4.4-1.1.3-.1.7-.2,1-.2,1.3-.2,2.4-.4,3.5-.4l-.5-.1h.3c1.6,0,3.1,0,4.5.3,1.6.3,3.1.7,4.5,1.3,1.3.5,2.6,1.4,4,2.3,1,.7,2,1.7,3,2.7l.9.8c1.1,1,2,2,2.7,3l.5.7c.7,1.1,1.5,2.2,1.9,3.3.5,1.4,1,3,1.3,4.6.1.8,0,1.8,0,2.9Z" fill="#f0f"/><path d="M98.1,173.854c-.5-2.8-1.3-5.5-2.2-7.8-.8-2-2-3.7-3.1-5.3-.4-.5-.8-1.1-1.1-1.6-1.2-1.8-2.7-3.3-4.1-4.7l-1.2-1.2c-.4-.3-.7-.7-1.1-1.1-1.4-1.5-2.9-3-4.7-4.2l-.9-.6c-1.8-1.3-3.7-2.6-5.9-3.5-2.3-.9-4.8-1.7-7.6-2.3-2.3-.5-4.5-.5-6.7-.5h-1.3c-2.1-.1-4,.3-5.8.7-.7.1-1.3.2-1.9.5h-.9c-2.1.4-4.4.7-6.6,1.6-1.8.8-3.4,1.9-4.7,2.9-.6.5-1.2.9-1.8,1.3-.6.4-1.5.7-2.3,1.1-1.6.7-3.3,1.4-4.7,2.8-1.8,1.8-3.5,4-5,6.2-1.2,1.8-1.9,3.8-2.7,5.7-.2.5-.4.9-.6,1.4-.8,2-1.2,4.1-1.6,6.1-.1.5-.3.9-.3,1.4-.2.8-.5,1.6-.8,2.5-.5,1.5-1.2,3.3-1.2,5.2-.1,2.1.3,4.2.7,6.1.1.6.3,1.1.3,1.7.3,1.9,1.3,3.5,2.1,4.9.5.8.9,1.5,1.2,2.2.2.7.4,1.5.5,2.5.3,1.7.5,3.5,1.6,5.2,1.1,1.7,2.5,3,3.8,4.1.6.6,1.2,1.1,1.7,1.6,1.6,1.8,3.6,3.3,5.9,4.9.5.3,1,.7,1.5,1,1.5,1.1,3.1,2.3,5.1,3.1,1.8.8,3.6.8,5.2.8.9,0,1.8.1,2.5.2s1.5.5,2.4.8c1.5.6,3.2,1.3,5.1,1.3h.4l.2.1c2.5,0,4.9-.4,7.5-.8,2-.3,3.8-1.1,5.5-1.8.6-.3,1.2-.6,1.9-.8,2.3-.9,4.6-2,6.9-3.4,1.9-1.2,3.3-2.6,4.7-3.9.4-.4.8-.7,1.2-1.1,1.9-1.8,3.5-3.6,5-5.7.4-.6.8-1.1,1.3-1.7,1.1-1.3,2.3-2.8,3.1-4.7,1-2.3,1.5-4.6,2-6.8l.3-1.5c.5-2.2,1-4.4,1-6.9,0-.8.1-1.6.2-2.5.1-1.8.3-3.6,0-5.5ZM92.6,178.354c-.1,1-.2,2-.2,3.1,0,1.9-.5,3.8-.9,5.8l-.3,1.5c-.4,2-.8,3.9-1.6,5.7-.6,1.3-1.5,2.3-2.4,3.5-.5.7-1,1.3-1.5,2-1.3,1.8-2.7,3.4-4.3,4.9l-1.2,1.2c-1.2,1.2-2.4,2.3-3.7,3.1-2,1.2-4,2.1-6,2.9-.8.3-1.5.6-2.2.9-1.5.6-2.9,1.2-4.3,1.4-2.5.4-4.7.7-6.9.7-1,0-2.1-.4-3.2-.9-1-.4-2.1-.9-3.3-1.1-1.2-.3-2.4-.3-3.5-.3-1.3,0-2.4,0-3.3-.4-1.4-.6-2.6-1.5-4-2.5-.5-.4-1.1-.7-1.6-1.1-2-1.3-3.7-2.7-5.1-4.1-.7-.6-1.3-1.2-2-1.8-1.1-1-2.2-1.9-2.8-2.9-.5-.7-.6-1.8-.8-3-.1-1.2-.3-2.4-.8-3.7-.4-1.2-1-2.1-1.6-3.1-.6-1.1-1.2-2.1-1.4-3-.1-.6-.2-1.2-.3-1.8-.3-1.7-.6-3.4-.6-5,0-1,.4-2.1.9-3.4.4-1,.8-2.1,1-3.3.1-.4.3-.9.3-1.4.3-1.8.7-3.6,1.3-5.1.2-.5.4-1,.6-1.5.7-1.7,1.3-3.4,2.2-4.7,1.3-1.9,2.8-3.8,4.3-5.3.7-.6,1.8-1.1,3-1.6,1-.4,2.1-.8,3.1-1.5l2.1-1.5c1.1-.8,2.2-1.6,3.4-2.1,1.7-.6,3.6-1,5.6-1.3l.9-.2c.6-.1,1.3-.3,2-.4,1.6-.3,3.1-.6,4.5-.6l-.1-.1h1.5c2,0,3.9,0,5.6.4,2.4.5,4.6,1.2,6.6,2,1.7.7,3.3,1.8,4.9,2.9l1,.7c1.3.9,2.5,2.1,3.7,3.4l1.2,1.2c.5.4.9.8,1.3,1.2,1.3,1.2,2.5,2.4,3.4,3.7.4.6.8,1.1,1.2,1.7,1,1.5,2,2.8,2.5,4.2.8,1.9,1.5,4.3,1.9,6.7.2,1.1.1,2.5-.1,3.9Z" fill="#f0f"/><path d="M108.9,172.254c-.6-3.6-1.6-7-2.7-9.9-.9-2.4-2.4-4.4-3.8-6.4-.6-.8-1.1-1.5-1.6-2.3-1.4-2.2-3.2-3.9-5-5.6-.6-.6-1.2-1.2-1.8-1.8-.5-.6-1.1-1.2-1.6-1.8-1.7-1.8-3.4-3.7-5.6-5.2-.5-.4-1-.7-1.5-1.1-2.2-1.5-4.5-3.1-7.1-4.2-2.9-1.2-6.1-2.2-9.7-3-2.7-.6-5.5-.6-8.1-.6h-2c-2.5,0-4.8.5-7.1,1-1,.3-1.8.4-2.7.6-.5.1-1.1.3-1.6.3-2.6.4-5.4.9-8,1.9-2.2.8-4,2.2-5.7,3.5-.8.6-1.7,1.3-2.5,1.8-.9.5-2,1-3.2,1.4-1.9.7-4.1,1.5-5.8,3.2-2.3,2.2-4.5,4.9-6.4,7.8-1.4,2.1-2.4,4.6-3.3,6.9-.3.7-.6,1.5-.9,2.2-1.1,2.5-1.5,5.1-2,7.5-.1.7-.3,1.4-.4,2.1-.2,1.1-.7,2.2-1.2,3.4-.8,1.9-1.7,4.1-1.7,6.4,0,2.6.5,5.1,1,7.5.2.9.4,1.7.5,2.5.4,2.4,1.7,4.3,2.8,6,.7,1,1.3,2,1.7,3,.3.9.5,2.2.6,3.5.2,2,.4,4.4,1.7,6.4s3,3.5,4.7,4.9c.9.8,1.7,1.5,2.4,2.2,2.1,2.1,4.5,4.2,7.5,6.2.7.5,1.4,1,2.1,1.5,1.9,1.4,3.8,2.8,6.2,3.8,2.2.9,4.5.9,6.5.9,1.3,0,2.5,0,3.5.2,1.1.2,2.1.7,3.3,1.2,1.8.8,3.9,1.8,6.2,1.8h.5l-.1.3c3.2,0,6.3-.6,9.3-1.1h.2c2.4-.4,4.5-1.4,6.6-2.3.9-.4,1.8-.8,2.7-1.1,3-1.1,5.9-2.5,8.8-4.3,2.2-1.3,3.9-3.1,5.6-4.7.6-.6,1.2-1.1,1.8-1.7,2.4-2.3,4.4-4.6,6.3-7.3.6-.8,1.2-1.6,1.9-2.4,1.5-1.6,2.9-3.3,3.9-5.6,1.2-2.7,1.7-5.5,2.3-8.1.1-.5.2-1,.3-1.5.1-.5.2-1,.3-1.5.6-2.6,1.3-5.3,1.3-8.2.1-1.1.2-2.3.4-3.5.2-2.2.6-4.4.2-6.7ZM103.5,177.954c-.2,1.3-.4,2.7-.4,4.1,0,2.4-.5,4.7-1.1,7.2-.1.5-.2,1-.3,1.5-.1.5-.2,1-.3,1.5-.5,2.5-1,4.8-2,7-.7,1.6-1.9,3-3.1,4.4-.8.8-1.5,1.7-2.2,2.7-1.7,2.4-3.5,4.5-5.6,6.5-.7.6-1.3,1.2-1.9,1.8-1.5,1.5-2.9,3-4.6,4-2.7,1.6-5.2,2.9-7.9,3.9-1,.4-2,.9-3,1.3-1.9.8-3.6,1.6-5.4,1.9h-.2c-2.9.5-5.9,1-8.8,1-1.3,0-2.7-.6-4.2-1.3-1.3-.6-2.7-1.3-4.3-1.6-1.4-.3-2.8-.3-4.1-.3l-.3-.2h-.5c-1.6,0-3.2,0-4.4-.5-1.8-.7-3.4-1.9-5.1-3.2-.8-.6-1.5-1.2-2.3-1.7-2.7-1.8-4.9-3.6-6.7-5.5-.9-.9-1.9-1.7-2.8-2.5-1.5-1.2-2.9-2.4-3.7-3.7-.6-1-.7-2.6-.9-4.2-.1-1.6-.3-3.3-.9-4.9-.5-1.5-1.4-2.8-2.2-4-.9-1.4-1.8-2.7-2-4-.1-.8-.3-1.7-.5-2.6-.4-2.2-.8-4.4-.8-6.4,0-1.3.6-2.9,1.3-4.5.6-1.4,1.2-2.8,1.5-4.3.1-.7.3-1.5.4-2.2.5-2.3.9-4.4,1.7-6.4.3-.7.6-1.5.9-2.3.9-2.2,1.7-4.2,2.8-5.9,1.8-2.6,3.8-5,5.8-7,.9-.9,2.4-1.5,4-2.1,1.4-.5,2.9-1,4.2-1.9,1-.7,2-1.4,2.9-2.1,1.5-1.1,2.9-2.2,4.4-2.8,2.2-.8,4.5-1.2,7-1.6.5-.1,1.1-.3,1.6-.3,1-.2,2-.4,2.9-.6,2.1-.5,4-.9,5.9-.9h2.1c2.4,0,4.8,0,7,.5,3.1.7,6.2,1.6,8.7,2.7,2.1.9,4.1,2.3,6.1,3.7.5.4,1.1.7,1.6,1.1,1.7,1.2,3.2,2.7,4.7,4.4.6.7,1.2,1.3,1.8,1.9.6.7,1.3,1.3,1.9,1.9,1.6,1.6,3.1,3,4.2,4.7.5.9,1.1,1.7,1.7,2.5,1.3,1.8,2.5,3.5,3.2,5.3,1,2.6,1.8,5.6,2.4,8.9.3,1.5.1,3.3-.2,5.1Z" fill="#f0f"/><path d="M112.4,150.554c-.8-1-1.5-2-2.1-3-1.7-2.6-3.8-4.6-5.9-6.6-.8-.7-1.6-1.5-2.4-2.3-.8-.7-1.5-1.5-2.2-2.3-1.9-2.1-3.9-4.3-6.5-6.1l-2.1-1.5c-2.6-1.9-5.3-3.8-8.3-5.1-3.5-1.5-7.5-2.8-11.8-3.7-3.2-.7-6.4-.7-9.5-.7h-2.7c-2.9-.1-5.7.6-8.4,1.2-1.2.2-2.4.5-3.5.7-.8.2-1.5.3-2.3.4-3.1.5-6.3,1-9.4,2.2-2.6,1.1-4.7,2.7-6.7,4.3-1.1.9-2.1,1.7-3.2,2.4-1.1.8-2.6,1.3-4.1,1.8-2.3.8-4.9,1.8-6.9,3.7-2.8,2.7-5.5,5.9-7.9,9.4-1.7,2.5-2.8,5.3-3.9,8.1-.4,1-.8,1.9-1.2,2.9-.6,1.33-1.04,2.68-1.4,4.03v18.2c.31-1.39.92-2.83,1.6-4.33.7-1.7,1.5-3.4,1.9-5.3.2-.9.4-1.9.6-2.9.5-2.8,1-5.4,2-7.8.4-1,.8-2.1,1.2-3.1,1-2.7,2-5.2,3.4-7.2,2.2-3.2,4.7-6.2,7.2-8.7,1.2-1.1,3.1-1.8,5.1-2.5,1.8-.6,3.6-1.3,5.2-2.3,1.3-.8,2.5-1.8,3.6-2.7,1.8-1.4,3.5-2.8,5.4-3.5,2.6-1,5.4-1.4,8.4-1.9.8-.1,1.5-.3,2.3-.4,1.2-.2,2.5-.5,3.7-.8,2.5-.6,4.9-1.1,7.2-1.1h2.8c2.9,0,5.9,0,8.5.6,4.1.9,7.7,2,10.9,3.4,2.6,1.1,5,2.8,7.4,4.5.8.5,1.5,1,2.2,1.5,2.1,1.5,3.8,3.4,5.6,5.4.8.9,1.5,1.7,2.3,2.5.8.8,1.7,1.6,2.5,2.4,1.9,1.9,3.8,3.6,5.1,5.7.7,1.1,1.4,2.2,2.2,3.2,1.6,2.2,3,4.2,3.9,6.4,1.2,3.2,2.3,7,3,11.1v-16.1c-.86-1.44-1.83-2.78-2.8-4.1ZM114.8,177.054c-.3,1.7-.6,3.4-.6,5.1-.1,2.8-.7,5.6-1.4,8.6-.2.7-.3,1.5-.5,2.2-.2.8-.4,1.5-.5,2.2-.6,3-1.2,5.8-2.4,8.5-.8,2-2.3,3.6-3.8,5.4-1,1.1-1.9,2.2-2.8,3.4-2.1,3-4.3,5.5-7,8-.8.8-1.6,1.6-2.4,2.4-1.8,1.9-3.5,3.6-5.6,4.9-3.3,2.1-6.5,3.7-9.8,4.9-1.3.5-2.6,1-3.8,1.6-2.3,1-4.4,2-6.6,2.5h-.6c-3.5.6-7.1,1.2-10.6,1.2-1.7-.1-3.4-.9-5.3-1.8-1.7-.8-3.4-1.6-5.3-2-1.3-.3-2.6-.3-3.9-.3h-1.4c-2.1,0-4.1.1-5.7-.6-2.2-.9-4.1-2.4-6.2-4-1-.7-2-1.5-3-2.2-3.4-2.3-6.1-4.6-8.4-6.9-1.1-1.2-2.3-2.2-3.5-3.2-1.8-1.5-3.5-2.9-4.6-4.6-.8-1.4-1-3.3-1.1-5.4-.1-1.9-.3-4-1-5.9-.7-1.8-1.8-3.4-2.8-4.9-1.2-1.7-2.3-3.3-2.6-5-.2-1.1-.5-2.2-.7-3.4-.37-1.6-.7-3.23-.9-4.84v16.27c.95,1.26,1.72,2.51,2.2,3.67.5,1.2.6,2.8.7,4.5.2,2.4.4,5.2,1.9,7.6,1.5,2.4,3.6,4.1,5.6,5.8,1.1,1,2.2,1.9,3.1,2.8,2.5,2.6,5.4,5.1,9.1,7.6.9.6,1.8,1.3,2.7,2,2.3,1.7,4.5,3.4,7.3,4.6,2.5,1.1,5.3,1,7.7,1,1.6,0,3.1-.1,4.4.2,1.4.3,2.7,1,4.2,1.7,2.2,1.1,4.6,2.3,7.3,2.3h.7l.3-.2c3.7,0,7.4-.6,10.9-1.3h.6c2.8-.5,5.4-1.7,7.8-2.8,1.2-.5,2.4-1.1,3.5-1.5,3.6-1.4,7-3.1,10.6-5.3,2.6-1.6,4.6-3.6,6.5-5.6.8-.8,1.5-1.6,2.3-2.3,2.9-2.7,5.4-5.5,7.7-8.8.8-1,1.6-2,2.5-3,1.7-1.9,3.4-4,4.6-6.6.38-.85.71-1.7,1-2.56v-28.62c-.09.86-.24,1.75-.4,2.68Z" fill="#f0f"/><path d="M112.3,134.254c-1-1-2-1.9-2.9-2.9-.8-.9-1.7-1.9-2.6-2.9-2.2-2.5-4.5-5.1-7.4-7.1-.8-.6-1.7-1.3-2.6-1.9-2.9-2.2-6-4.4-9.5-5.9-4-1.7-8.7-3.2-13.8-4.3-3.7-.8-7.4-.8-11-.8h-3.4c-3.4-.1-6.6.7-9.7,1.4-1.4.3-2.8.7-4.2.9-1,.2-1.9.3-2.9.5-3.5.5-7.3,1.1-10.8,2.5-3,1.2-5.4,3.1-7.7,5-1.3,1-2.6,2-3.9,2.9-1.4.9-3.2,1.5-5.1,2.1-2.9.9-5.8,1.9-8.1,4.1-2.32,2.25-4.59,4.79-6.7,7.53v8.42c.42-.83.88-1.62,1.4-2.35,2.7-3.9,5.7-7.5,8.7-10.4,1.5-1.5,3.9-2.2,6.3-3,2-.7,4.2-1.4,6.1-2.6,1.5-.9,2.9-2.1,4.3-3.2,2.1-1.7,4.1-3.3,6.4-4.2,3.1-1.2,6.4-1.7,9.9-2.3,1-.2,2-.3,3-.5,1.5-.3,3-.6,4.5-1,2.9-.7,5.7-1.3,8.5-1.3h3.5c3.4,0,6.9,0,10,.7,4.9,1.1,9.2,2.5,13,4.1,3,1.3,5.8,3.4,8.6,5.4.9.6,1.8,1.3,2.7,1.9,2.5,1.7,4.5,4,6.6,6.4.9,1,1.8,2,2.8,3s2.1,2,3.1,3c2.16,2.07,4.24,4.05,5.8,6.28v-6.63c-.95-.99-1.94-1.93-2.9-2.85ZM114.8,214.554c-1.1,1.3-2.3,2.6-3.3,4.1-2.6,3.6-5.2,6.6-8.4,9.6-1.1,1-2,2-3,3-2.1,2.2-4.1,4.3-6.6,5.8-4,2.4-7.8,4.3-11.7,5.8-1.6.6-3.1,1.3-4.6,2-2.6,1.3-5.1,2.4-7.8,2.9l-1,.2c-4.1.8-8.3,1.4-12.4,1.4-2,0-4.2-1.1-6.4-2.2-1.9-1-4-2-6.2-2.5-1.3-.4-2.7-.4-4.1-.4h-2.3c-2.5.1-5,.1-6.9-.7-2.6-1.1-4.9-2.9-7.3-4.8-1.2-.9-2.4-1.8-3.6-2.7-4-2.8-7.3-5.5-10-8.3-1.3-1.4-2.8-2.6-4.3-3.8-1.8-1.54-3.6-3.01-4.9-4.66v6.91c.59.49,1.2.97,1.8,1.45,1.4,1.2,2.7,2.2,3.8,3.4,3,3.1,6.5,6,10.8,9,1.2.7,2.2,1.6,3.4,2.5,2.6,2,5.2,4,8.4,5.4,2.9,1.2,5.9,1.1,8.9,1,2-.1,3.8-.1,5.4.2,1.7.4,3.3,1.2,5.1,2.1,2.6,1.3,5.3,2.7,8.4,2.7h.8l-.3.1c4.2,0,8.4-.7,12.5-1.4l1-.2c3.2-.6,6.2-2,9-3.3,1.4-.7,2.8-1.4,4.2-1.9,4.2-1.6,8.3-3.6,12.5-6.2,3-1.9,5.3-4.2,7.5-6.5.9-.9,1.8-1.9,2.8-2.8,3.4-3.2,6.3-6.4,9-10.3.07-.09.13-.19.2-.28v-7.09c-.13.15-.26.31-.4.47Z" fill="#f0f"/><path d="M114,120.654c-2.5-2.8-5.1-5.8-8.4-8.1-1.1-.8-2.1-1.5-3.2-2.3-3.4-2.4-6.9-5-10.8-6.7-4.6-2-10-3.7-15.9-5-4.1-.9-8.4-.9-12.5-.9h-4.1c-3.8,0-7.5.8-11,1.7-1.7.4-3.3.8-5,1.1-1.2.2-2.3.4-3.5.6-4.1.6-8.3,1.3-12.3,2.8-3.4,1.3-6.1,3.6-8.7,5.7-1.5,1.3-3,2.5-4.6,3.5-1.6,1-3.8,1.7-6,2.4-2.81.85-5.62,1.7-8,3.49v6.25c.69-.74,1.4-1.46,2.1-2.14,1.8-1.8,4.5-2.6,7.4-3.5,2.4-.7,4.9-1.5,7.1-2.9,1.9-1.2,3.5-2.5,5.1-3.8,2.5-2.1,4.8-4,7.5-5,3.6-1.4,7.4-2,11.4-2.6,1.2-.2,2.4-.4,3.6-.6,1.8-.3,3.6-.8,5.3-1.2,3.4-.8,6.6-1.5,9.9-1.5h4.2c3.9,0,7.9,0,11.5.8,5.7,1.3,10.7,2.9,15.1,4.8,3.5,1.5,6.7,3.9,9.9,6.2,1,.8,2.1,1.6,3.2,2.3,2.8,2,5.2,4.6,7.6,7.4,1.1,1.2,2.2,2.4,3.3,3.6.32.35.65.69,1,1.04v-6.09c-.39-.45-.79-.9-1.2-1.35ZM110.3,235.954c-1.2,1.1-2.4,2.3-3.5,3.5-2.5,2.5-4.7,4.9-7.6,6.7-4.7,2.9-9,5-13.6,6.8-1.8.7-3.6,1.6-5.3,2.4-3.1,1.5-6,2.9-9.1,3.4l-1.3.2c-4.7.9-9.5,1.7-14.2,1.6-2.4-.1-4.9-1.3-7.5-2.7-2.2-1.1-4.6-2.3-7.1-2.9-1.4-.4-2.9-.4-4.4-.4l.1.2h-3.1c-3,.1-5.9.2-8.2-.8-3.1-1.3-5.8-3.5-8.5-5.6-1.4-1.1-2.8-2.2-4.2-3.2-4.8-3.3-8.5-6.4-11.7-9.7-.35-.38-.72-.74-1.1-1.09v6.36c2.88,2.72,6.16,5.36,10.2,8.13,1.3.9,2.6,1.9,4,3,2.9,2.3,5.9,4.6,9.5,6.2,3.3,1.4,6.7,1.2,10.1,1.1,2.3-.1,4.5-.2,6.4.2,2,.4,3.9,1.4,6,2.5,3,1.5,6,3.2,9.5,3.2h.9l-.3.2c4.8,0,9.6-.8,14.2-1.6l1.3-.2c3.7-.6,7-2.2,10.2-3.7,1.7-.8,3.3-1.6,5-2.2,4.8-1.8,9.5-4.2,14.3-7.2,3.3-2.1,5.9-4.8,8.4-7.4,1.1-1.1,2.2-2.3,3.4-3.4.72-.69,1.42-1.37,2.1-2.07v-6.63c-1.52,1.75-3.13,3.43-4.9,5.1Z" fill="#f0f"/><path d="M111.8,103.854c-1.2-.9-2.5-1.8-3.7-2.7-3.7-2.8-7.6-5.7-12-7.6-5.2-2.3-11.2-4.2-17.9-5.7-4.6-1-9.4-1-14-1h-4.7c-4.3-.1-8.3.9-12.3,1.9-2,.5-3.9,1-5.8,1.3-1.4.3-2.7.5-4.1.7-4.5.7-9.2,1.5-13.7,3.2-3.8,1.5-6.8,4-9.7,6.4-1.8,1.4-3.5,2.8-5.3,4-2,1.3-4.4,2-7,2.8-.53.14-1.07.29-1.6.45v4.16c.94-.32,1.92-.61,2.9-.91,2.7-.8,5.6-1.7,8-3.2,2-1.4,3.9-2.9,5.7-4.4,2.7-2.3,5.4-4.5,8.5-5.7,4.1-1.5,8.4-2.2,12.9-2.9,1.4-.2,2.8-.5,4.2-.7,2.1-.3,4.1-.8,6.1-1.3,3.8-1,7.5-1.8,11.2-1.8h4.9c4.3,0,8.9,0,13,.9,6.4,1.4,12.2,3.2,17.2,5.4,4,1.7,7.7,4.5,11.3,7.1,1.3.9,2.6,1.8,3.8,2.7,1.97,1.36,3.79,3.09,5.5,4.92v-5.26c-1.06-.98-2.19-1.91-3.4-2.76ZM113.5,247.854c-2.8,2.9-5.4,5.6-8.6,7.6-5.2,3.3-10.2,5.8-15.4,7.8-2.1.8-4.1,1.8-6.1,2.7-3.5,1.7-6.8,3.3-10.3,3.9l-1.7.3c-5.2,1-10.7,1.9-16,1.8-2.9-.1-5.7-1.6-8.7-3.2-2.5-1.4-5.1-2.8-8-3.4-1.5-.3-3.1-.4-4.7-.4v.2c-1.2,0-2.5.1-3.7.1-3.4.1-6.7.3-9.4-.9-3.5-1.5-6.7-4-9.7-6.4-1.5-1.3-3.1-2.6-4.8-3.7-2.34-1.66-4.46-3.24-6.4-4.81v5.2c1.27.96,2.6,1.93,4,2.91,1.5,1.1,3,2.2,4.6,3.5,3.3,2.6,6.6,5.3,10.6,7,3.6,1.6,7.5,1.4,11.3,1.2,2.7-.2,5.2-.3,7.4.2,2.3.5,4.6,1.7,7,3,3.3,1.7,6.7,3.6,10.5,3.6h1l-.4.1c5.3,0,10.6-.9,15.8-1.8l1.7-.3c4.1-.7,7.8-2.5,11.4-4.2,1.9-1,3.8-1.9,5.7-2.6,5.5-2,10.8-4.7,16.2-8.1,3.26-2.12,5.9-4.7,8.4-7.27v-5.77c-.57.59-1.14,1.18-1.7,1.74Z" fill="#f0f"/><path d="M114.1,91.654c-4.1-3.1-8.4-6.3-13.3-8.4-5.8-2.6-12.5-4.7-20-6.4-5.1-1.1-10.4-1.1-15.5-1.1h-5.4c-4.7-.1-9.2,1-13.6,2.1-2.3.6-4.4,1.1-6.6,1.5-1.6.3-3.1.6-4.7.8-5,.8-10.3,1.6-15.2,3.5-4.1,1.5-7.5,4.3-10.7,7-2,1.7-3.9,3.3-6,4.6-.96.59-2,1.07-3.1,1.49v4.19c1.86-.62,3.67-1.35,5.3-2.38,2.3-1.5,4.4-3.2,6.4-4.9,3.1-2.6,6.1-5,9.6-6.4,4.6-1.8,9.3-2.5,14.4-3.3,1.6-.3,3.2-.5,4.8-.8,2.3-.4,4.6-.9,6.8-1.5,2.15-.55,4.25-1.05,6.34-1.41,2.08-.37,4.16-.59,6.26-.59h5.5c4.9,0,10,0,14.6,1,7.2,1.6,13.7,3.6,19.3,6.1,4.5,2,8.6,5,12.6,8,1.07.77,2.2,1.59,3.3,2.38v-4.63c-.37-.28-.73-.56-1.1-.85ZM110.8,264.454c-5.9,3.8-11.4,6.6-17.3,8.8-2.3.9-4.6,2-6.8,3.1-3.9,1.9-7.6,3.7-11.6,4.4l-2.1.4c-5.8,1.1-11.9,2.1-17.8,2-3.3,0-6.5-1.8-9.9-3.6-2.8-1.5-5.7-3.1-8.9-3.8-1.7-.4-3.4-.5-5.1-.5l-.2.2c-1.4,0-2.9.2-4.3.2-3.9.3-7.6.5-10.7-.9-3.9-1.8-7.4-4.6-10.8-7.3-1.67-1.38-3.44-2.85-5.3-4.13v4.57c.98.76,1.97,1.56,3,2.36,3.6,2.9,7.3,5.9,11.7,7.8,4,1.8,8.3,1.5,12.5,1.3,3-.2,5.9-.4,8.4.2,2.6.6,5.2,1.9,7.9,3.4,3.6,2,7.4,4.1,11.6,4.1h1.1l-.2-.1c5.9,0,11.8-1,17.5-2l2.1-.4c4.5-.8,8.6-2.8,12.6-4.7,2.2-1,4.3-2.1,6.5-2.9,6.1-2.3,11.8-5.2,18-9.1.87-.54,1.7-1.13,2.5-1.74v-5.05c-1.38,1.24-2.82,2.38-4.4,3.39Z" fill="#f0f"/><path d="M105.5,73.254c-6.4-2.8-13.8-5.2-22.1-7-5.6-1.1-11.4-1.1-17-1.1h-6.1c-5.1-.2-10.1,1.1-14.9,2.3-2.5.6-5,1.3-7.4,1.7-1.8.3-3.5.5-5.3.8-5.6.9-11.3,1.7-16.7,3.8-4.5,1.7-8.2,4.7-11.7,7.7-1.38,1.18-2.8,2.41-4.3,3.53v4.11c2.36-1.54,4.62-3.34,6.7-5.14,3.5-2.8,6.8-5.6,10.7-7.1,5-2,10.3-2.8,15.9-3.6,1.8-.3,3.6-.6,5.4-.9,2.6-.4,5.1-1.1,7.6-1.7,4.6-1.15,8.92-2.21,13.4-2.21.2,0,.4.01.6.01h6.2c5.4,0,11-.1,16.1,1.1,8,1.8,15.2,4.1,21.4,6.8,3.98,1.67,7.65,4.17,11.2,6.79v-4.25c-3.07-2.15-6.26-4.15-9.7-5.64ZM97.3,283.554c-2.6,1-5.2,2.2-7.6,3.4-4.3,2.1-8.4,4.1-12.8,4.9l-2.4.4c-6.5,1.2-13.2,2.4-19.7,2.2-3.7-.1-7.2-2-11-4.1-3.1-1.7-6.3-3.4-9.8-4.2-1.7-.4-3.6-.5-5.4-.5v-.4c-1.6,0-3.3.2-4.9.2-4.4.3-8.5.5-12-1-4.28-1.85-8.09-4.93-11.7-7.86v5.14c3.1,2.46,6.39,4.8,10.1,6.42,4.3,1.9,9.1,1.6,13.7,1.3,3.4-.2,6.6-.4,9.4.2,2.9.7,5.8,2.2,8.8,3.9,4,2.2,8.1,4.5,12.7,4.6h1.3c6.34-.02,12.76-1.11,18.9-2.2l2.4-.4c5-.8,9.5-3.1,13.8-5.2,2.4-1.2,4.9-2.4,7.3-3.3,5.76-2.12,11.15-4.73,16.8-8.1v-4.3c-6.11,3.71-11.83,6.57-17.9,8.9Z" fill="#f0f"/><path d="M109.8,63.254c-6.9-3.1-15.1-5.7-24.1-7.7-6-1.3-12.3-1.2-18.4-1.2h-6.7c-5.6-.1-11.1,1.3-16.3,2.6-2.6.6-5.4,1.3-8.1,1.8-1.9.3-4,.6-5.9.9-6,.9-12.2,1.8-18.1,4.1-4.69,1.72-8.55,4.91-12.2,7.98v4.12c.6-.49,1.2-1,1.8-1.5,3.8-3.2,7.3-6.2,11.7-7.9,5.5-2.1,11.3-3,17.4-3.9,2-.2,4-.6,6-.9,2.8-.5,5.7-1.2,8.4-1.9,5.1-1.3,10.3-2.6,15.4-2.5h6.8c5.9,0,12-.1,17.7,1.2,8.8,2,16.7,4.5,23.5,7.5,2.23.99,4.4,2.2,6.5,3.54v-3.44c-1.74-1.05-3.53-2-5.4-2.8ZM101.2,293.754c-2.8,1.1-5.6,2.5-8.3,3.8-4.8,2.3-9.2,4.6-14.1,5.4l-2.7.5c-7,1.3-14.4,2.6-21.5,2.4-4.1-.1-8-2.3-12.2-4.6-3.4-1.9-6.9-3.9-10.7-4.7-1.9-.5-3.8-.6-5.8-.6l.1-.3c-1.8,0-3.7.1-5.5.2-4.8.3-9.4.6-13.3-1.1-2.56-1.1-4.94-2.58-7.2-4.22v4.63c1.78,1.17,3.63,2.22,5.6,3.09,4.7,2.1,9.9,1.7,14.9,1.4,3.7-.3,7.2-.5,10.4.2,3.3.7,6.6,2.5,9.8,4.3,4.3,2.4,8.8,4.9,13.7,5h1.4v.2c7,0,14-1.2,20.8-2.4l2.7-.5c5.4-.9,10.3-3.4,15-5.7,2.6-1.3,5.3-2.7,8-3.7,4.41-1.67,8.64-3.58,12.9-5.86v-3.91c-4.64,2.57-9.21,4.67-14,6.47Z" fill="#f0f"/><path d="M114.6,52.954c-7.6-3.4-16.4-6.2-26.2-8.4-6.5-1.4-13.3-1.3-19.9-1.3h-7.4c-6-.1-11.9,1.4-17.6,2.8-2.9.7-5.9,1.5-8.9,2-2.2.4-4.4.7-6.5,1-6.5,1-13.2,2-19.6,4.4-3.13,1.18-5.91,2.92-8.5,4.87v3.71c2.91-2.35,5.87-4.4,9.3-5.68,6.1-2.4,12.4-3.3,19-4.3,2.2-.3,4.4-.6,6.6-1,3-.6,6.1-1.3,9.1-2.1,5.22-1.35,10.71-2.71,16.13-2.71.19,0,.38.01.57.01h7.5c6.4,0,13-.1,19.2,1.3,9.6,2.2,18.2,4.9,25.6,8.2.74.33,1.47.68,2.2,1.05v-3.58c-.2-.09-.4-.18-.6-.27ZM105,304.054c-3.1,1.1-6.1,2.6-9,4.1-5.1,2.6-10,5-15.3,5.9-1.1.1-2.1.3-3.1.5-7.7,1.4-15.7,2.8-23.4,2.6-4.5-.1-8.8-2.6-13.3-5.1-3.7-2-7.5-4.2-11.6-5.1-1.9-.5-4-.6-6.1-.6l-.3-.2c-2,0-4.1.2-6.1.3-5.3.4-10.3.7-14.6-1.2-.75-.33-1.48-.69-2.2-1.08v3.42c.39.19.8.38,1.2.56,5,2.2,10.6,1.9,16,1.5,4.1-.3,7.9-.6,11.4.2,3.6.8,7.2,2.8,10.7,4.8,4.7,2.7,9.5,5.4,14.8,5.5h1.5v-.1c7.6,0,15.1-1.3,22.5-2.6,1-.1,2-.3,3-.5,5.8-1,11.1-3.7,16.2-6.2,2.9-1.4,5.8-2.9,8.8-4,3.09-1.16,6.1-2.43,9.1-3.86v-3.31c-3.36,1.66-6.73,3.14-10.2,4.47Z" fill="#f0f"/><path d="M90.6,33.854c-6.9-1.6-14.3-1.4-21.4-1.4h-8c-6.5-.2-12.8,1.4-18.9,3-3.2.8-6.5,1.6-9.7,2.2-2.3.4-4.8.8-7.1,1.1-7,1-14.3,2.1-21.1,4.7-1.54.57-3,1.27-4.4,2.06v3.46c1.77-1.16,3.61-2.16,5.6-2.92,6.5-2.5,13.3-3.5,20.5-4.6,2.4-.3,4.8-.7,7.2-1.1,3.3-.6,6.7-1.5,9.9-2.3,5.9-1.5,12-3,18.1-2.9h8.1c6.9,0,14.1-.1,20.8,1.4,9.25,2.13,17.63,4.74,25,7.76v-2.98c-7.27-2.93-15.53-5.43-24.6-7.48ZM108.8,314.054c-3.4,1.3-6.6,2.9-9.8,4.5-5.3,2.6-10.8,5.4-16.6,6.4-1.1.2-2.3.4-3.4.6-8.3,1.5-16.8,3-25.2,2.8-4.9-.1-9.6-2.7-14.5-5.5-3.9-2.3-8-4.6-12.4-5.6-2.1-.4-4.3-.6-6.5-.6h-.1c-2.2,0-4.5.1-6.7.3-4.63.34-9.4.67-13.6-.49v2.77c4.45,1.06,9.27.74,13.9.42,4.4-.3,8.6-.6,12.4.3,4,.9,7.9,3.2,11.7,5.3,5,2.8,10.2,5.8,15.8,5.9h1.6l-.2.1c8.1,0,16.3-1.4,24.2-2.8,1.2-.2,2.3-.4,3.4-.6,6.2-1.1,11.9-4,17.4-6.7,3.1-1.6,6.3-3.2,9.5-4.4,1.85-.71,3.68-1.46,5.5-2.25v-3.1c-2.12.95-4.24,1.83-6.4,2.65Z" fill="#f0f"/><path d="M93.2,23.054c-7.4-1.7-15.3-1.5-22.9-1.5h-8.7c-6.9-.2-13.7,1.5-20.2,3.2-3.4.9-6.9,1.8-10.4,2.4-2.6.4-5.2.8-7.7,1.2-7.6,1.1-15.3,2.3-22.6,5.1-.24.09-.47.18-.7.28v2.81c.52-.25,1.06-.48,1.6-.69,7-2.7,14.3-3.8,22-4.9,2.6-.4,5.2-.7,7.8-1.2,3.5-.6,7.1-1.5,10.6-2.4,6.4-1.7,12.9-3.4,19.5-3.2h8.8c7.5,0,15.2-.1,22.4,1.5,8.16,1.82,15.69,4.02,22.5,6.55v-2.79c-6.68-2.44-14.05-4.55-22-6.36ZM112.8,324.254c-3.6,1.4-7.1,3.2-10.5,4.9-5.8,2.9-11.7,5.8-17.9,6.9-1.2.3-2.5.5-3.7.7-8.9,1.6-18.1,3.2-27.1,3-5.4-.1-10.4-3-15.7-6-4.2-2.4-8.6-4.9-13.3-6-2.2-.5-4.6-.7-6.9-.7v.1c-2.4,0-4.9.2-7.3.4-3.5.23-7.04.5-10.4.22v2.29c3.53.28,7.16.02,10.7-.21,4.8-.3,9.3-.6,13.4.3,4.3,1,8.5,3.4,12.6,5.7,5.4,3.1,10.9,6.3,16.9,6.4h1.7l.1-.2c8.6,0,17.3-1.5,25.8-3,1.2-.3,2.5-.5,3.7-.7,6.7-1.1,12.7-4.1,18.6-7.1,3.4-1.6,6.8-3.4,10.3-4.7.47-.18.93-.36,1.4-.55v-2.7c-.8.33-1.6.64-2.4.95Z" fill="#f0f"/><path d="M95.5,11.854c-7.9-1.8-16.3-1.6-24.4-1.6h-9.3c-7.4-.2-14.5,1.7-21.5,3.5-3.7,1-7.5,2-11.2,2.6-2.8.5-5.6.9-8.3,1.3-6.91,1.04-13.97,2.07-20.8,4.28v2.66c6.76-2.29,13.77-3.37,21.1-4.44,2.8-.4,5.6-.8,8.4-1.3,3.8-.6,7.7-1.6,11.4-2.6,6.45-1.71,13.17-3.42,19.82-3.42.36,0,.72.01,1.08.02h9.4c8,0,16.2-.1,23.9,1.6,7.18,1.62,13.9,3.48,20.1,5.61v-2.74c-6.1-2.05-12.68-3.86-19.7-5.47ZM105.3,339.654c-6.1,3.1-12.4,6.2-19.1,7.4-1.3.2-2.6.5-4,.7-9.5,1.7-19.3,3.4-28.9,3.2-5.8-.1-11.2-3.2-16.9-6.5-4.5-2.6-9.2-5.3-14.2-6.4-2.3-.5-4.7-.7-7.2-.7h-.1c-2.6,0-5.2.2-7.8.4-2.36.18-4.75.37-7.1.39v2.2c2.44-.02,4.89-.21,7.3-.39,5.1-.3,10-.7,14.4.3,4.7,1.1,9.2,3.7,13.6,6.2,5.7,3.3,11.5,6.6,17.9,6.8h1.9l-.3-.2c9.2-.1,18.5-1.7,27.5-3.3,1.3-.2,2.7-.5,4-.7,7.1-1.2,13.5-4.4,19.8-7.6,2.98-1.49,6.04-3.05,9.1-4.34v-2.13c-3.37,1.4-6.71,3.08-9.9,4.67Z" fill="#f0f"/><path d="M108.6,350.054c-6.5,3.3-13.2,6.7-20.4,7.9-1.5.3-2.9.5-4.4.8-10.1,1.8-20.6,3.7-30.8,3.4-6.2-.2-11.9-3.5-18-7-4.8-2.7-9.8-5.6-15.1-6.8-2.4-.5-5-.7-7.6-.7l-.2-.1c-2.8,0-5.6.2-8.4.4-1.23.09-2.46.18-3.7.25v2.22c1.34-.08,2.67-.18,4-.27,5.5-.4,10.6-.8,15.4.3,5,1.1,9.8,3.9,14.5,6.6,4.39,2.44,8.82,4.99,13.46,6.3.89.25,1.78.46,2.68.61h10.62c2.2-.14,4.39-.35,6.58-.61,5.69-.68,11.36-1.71,16.96-2.7,1.5-.3,3-.6,4.4-.8,7.4-1.3,14.3-4.7,20.9-8.1,1.9-.97,3.79-1.95,5.7-2.86v-2.11c-2.23,1.04-4.43,2.16-6.6,3.27ZM87.83.004c3.47.25,6.91.69,10.27,1.45,6.03,1.34,11.73,2.88,17.1,4.58v1.79c-5.45-1.72-11.25-3.29-17.4-4.67-8.2-1.9-17-1.8-25.5-1.7h-10c-7.5-.2-15,1.8-22.3,3.6-4,1-8.1,2.1-12.2,2.8-3,.5-6,1-9,1.4C12.56,10.144,6.16,11.094,0,12.794v-1.71c6.1-1.65,12.38-2.57,18.5-3.43,2.9-.4,5.9-.9,8.9-1.4,4-.7,8.1-1.7,12-2.8C44.92,2.044,50.54.574,56.27.004h31.56Z" fill="#f0f"/><rect id="rect4" x="0" y="296.384" width="115.2" height="52.5" fill="#fe6e1f"/><path d="M108.4,52.184c-.1,3.9-1.7,6.9-4.3,8.7v4.4c0,3.8-2.9,6.7-6.7,6.7h-11.6c-1.7,0-3.2-.6-4.3-1.6-1.2,1-2.7,1.6-4.4,1.6h-10.8c-.7,0-1.4,0-2-.2v.2h-13.8v-11.1h-8.9c-.5.4-1.1.7-1.7,1v3.4c0,3.8-2.9,6.7-6.7,6.7h-10.8c-.7,0-1.4,0-2-.2v.2H6.6v-34.1c0-3.8,2.9-6.7,6.7-6.7h6.3c1.9,0,3.7.5,5.3,1.3,1.1-.8,2.5-1.3,4.1-1.3h8.4c3.8,0,6.7,2.9,6.7,6.7v4.4h6.4v-4.4c0-3.8,2.9-6.7,6.7-6.7h6.3c1.9,0,3.7.5,5.3,1.3,1.1-.8,2.5-1.3,4.1-1.3h20v.7c1.3-.5,2.7-.7,4.2-.7h.7c6.4,0,10.4,4,10.6,10.4v10.6h0Z" fill="#ff0"/><path d="M97.4,72.484h-11.6c-1.611,0-3.126-.514-4.312-1.455-1.278.953-2.787,1.455-4.388,1.455h-10.8c-.499,0-1.01,0-1.5-.073v.073h-14.8v-11.1h-8.229c-.426.317-.9.57-1.371.809v3.091c0,4.105-3.095,7.2-7.2,7.2h-10.8c-.499,0-1.01,0-1.5-.073v.073H6.1v-34.6c0-4.105,3.095-7.2,7.2-7.2h6.3c1.777,0,3.543.411,5.255,1.223,1.205-.801,2.631-1.223,4.145-1.223h8.4c4.105,0,7.2,3.095,7.2,7.2v3.9h5.4v-3.9c0-4.105,3.095-7.2,7.2-7.2h6.3c1.777,0,3.544.411,5.256,1.223,1.205-.801,2.631-1.223,4.145-1.223h20.5v.5c1.106-.336,2.324-.5,3.7-.5h.7c6.637,0,10.89,4.171,11.1,10.885v10.628c-.098,3.82-1.622,6.985-4.3,8.945v4.142c0,4.105-3.096,7.2-7.2,7.2ZM81.513,69.722l.322.292c1.044.948,2.452,1.47,3.965,1.47h11.6c3.535,0,6.2-2.666,6.2-6.2v-4.662l.216-.149c2.54-1.759,3.99-4.705,4.084-8.295v-10.593c-.194-6.193-3.97-9.9-10.1-9.9h-.7c-1.539,0-2.854.218-4.021.667l-.68.261v-.928h-19.5c-1.407,0-2.723.417-3.806,1.205l-.245.179-.272-.136c-1.655-.828-3.363-1.248-5.077-1.248h-6.3c-3.534,0-6.2,2.666-6.2,6.2v4.9h-7.4v-4.9c0-3.535-2.666-6.2-6.2-6.2h-8.4c-1.407,0-2.723.417-3.806,1.205l-.246.179-.272-.136c-1.655-.828-3.363-1.248-5.076-1.248h-6.3c-3.534,0-6.2,2.666-6.2,6.2v33.6h12.8v-.394l.658.22c.523.174,1.164.174,1.842.174h10.8c3.535,0,6.2-2.666,6.2-6.2v-3.709l.276-.138c.566-.283,1.151-.575,1.611-.943l.137-.109h9.575v11.1h12.8v-.394l.658.22c.522.174,1.163.174,1.842.174h10.8c1.504,0,2.915-.513,4.079-1.484l.334-.279Z" fill="#f0f"/><path d="M13.4,36.884h6.3c3,0,4.8,1.9,5,5,0,1.6.1,3.3.1,4.9s0,3.3-.1,4.9c-.2,3.3-1.9,5.4-4.9,5.8l.2.9c.1.6.5.9,1.2.9h12.1c.7,0,1.1.4,1.1,1.1v5c0,.7-.4,1.1-1.1,1.1h-10.8c-2.7,0-4.2-1.4-4.7-4.4l-.5-3.2c-.1-.6-.5-.9-1.2-.9h-1.2v8.5h-2.5v-28.4c0-.7.4-1.1,1.1-1.1l-.1-.1ZM22,48.084v-1.4c0-1.6-.8-2.4-2.4-2.4h-4.8v6.3h4.8c1.5,0,2.4-.8,2.4-2.5ZM27.9,55.684v-17.7c0-.7.4-1.1,1.1-1.1h8.4c.7,0,1.1.4,1.1,1.1v4.9c0,.7-.4,1.1-1.1,1.1h-7.1v1.9h6.2v2.4h-6.2v1.3h7.1c.7,0,1.1.4,1.1,1.1v4.9c0,.7-.4,1.1-1.1,1.1h-8.4c-.7,0-1.1-.4-1.1-1.1v.1Z" fill="#fe6e1f"/><path d="M40.9,54.284v-5.2c0-.7.4-1.1,1.1-1.1h10.1c.7,0,1.1.4,1.1,1.1v5.2c0,.7-.4,1.1-1.1,1.1h-10.1c-.7,0-1.1-.4-1.1-1.1Z" fill="#fe6e1f"/><path d="M57.2,36.884h6.3c3,0,4.8,1.9,5,5,0,1.6.1,3.3.1,4.9s0,3.3-.1,4.9c-.2,3.3-1.9,5.4-4.9,5.8l.2.9c.1.6.5.9,1.2.9h12.1c.7,0,1.1.4,1.1,1.1v5c0,.7-.4,1.1-1.1,1.1h-10.8c-2.7,0-4.2-1.4-4.7-4.4l-.5-3.2c-.1-.6-.5-.9-1.2-.9h-1.2v8.5h-2.5v-28.4c0-.7.4-1.1,1.1-1.1l-.1-.1ZM65.9,48.084v-1.4c0-1.6-.8-2.4-2.4-2.4h-4.8v6.3h4.8c1.5,0,2.4-.8,2.4-2.5ZM71.8,55.684v-17.7c0-.7.4-1.1,1.1-1.1h8.4c.7,0,1.1.4,1.1,1.1v4.9c0,.7-.4,1.1-1.1,1.1h-7.1v1.9h6.2v2.4h-6.2v1.3h7.1c.7,0,1.1.4,1.1,1.1v4.9c0,.7-.4,1.1-1.1,1.1h-8.4c-.7,0-1.1-.4-1.1-1.1v.1Z" fill="#fe6e1f"/><path d="M84.7,65.284v-28.4h2.5v22.1h10.1c.7,0,1.1.4,1.1,1.1v5.2c0,.7-.4,1.1-1.1,1.1h-11.6c-.7,0-1.1-.4-1.1-1.1h.1ZM92.2,52.084v-10.3c0-3.4,1.6-4.9,4.9-4.9h.7c3.3,0,4.9,1.6,5,4.9v10.3c0,3.4-1.7,4.9-5,4.9h-.7c-3.3,0-4.9-1.6-4.9-4.9ZM100.3,46.984c0-2.1-.8-3-2.8-3s-2.9.8-2.9,3,.8,3,2.9,3,2.8-.8,2.8-3Z" fill="#fe6e1f"/></svg>